<mxfile host="app.diagrams.net" modified="2023-07-24T18:17:17.191Z" agent="Mozilla/5.0 (Windows NT 10.0; Win64; x64) AppleWebKit/537.36 (KHTML, like Gecko) Chrome/114.0.0.0 Safari/537.36" version="21.6.5" etag="Ja4jetMKtQ-_gCHzydOK" type="github">
  <diagram name="Page-1" id="_EP-o7LEdJ9yTt6QGNqi">
    <mxGraphModel>
      <root>
        <mxCell id="0" />
        <mxCell id="1" parent="0" />
      </root>
    </mxGraphModel>
  </diagram>
</mxfile>
